<svg width="100%" viewBox="0 0 1200 370" xmlns="http://www.w3.org/2000/svg">
<defs>
  <pattern id="dots3" x="0" y="0" width="32" height="32" patternUnits="userSpaceOnUse">
    <circle cx="1" cy="1" r="1" fill="#1c0a00"/>
  </pattern>
  <linearGradient id="divider3" x1="0" y1="0" x2="0" y2="1">
    <stop offset="0%" stop-color="#dc2626" stop-opacity="0"/>
    <stop offset="40%" stop-color="#dc2626" stop-opacity="0.35"/>
    <stop offset="60%" stop-color="#dc2626" stop-opacity="0.35"/>
    <stop offset="100%" stop-color="#dc2626" stop-opacity="0"/>
  </linearGradient>
  <linearGradient id="accent3" x1="0" y1="0" x2="1" y2="0">
    <stop offset="0%" stop-color="#dc2626"/>
    <stop offset="100%" stop-color="#f97316"/>
  </linearGradient>
</defs>
<rect width="1200" height="360" fill="#0c0400"/>
<rect width="1200" height="360" fill="url(#dots3)"/>
<rect width="1200" height="3" fill="url(#accent3)"/>
<g transform="translate(44, 104)">
  <rect x="0" y="0" width="132" height="72" rx="36" fill="#FF2D20"/>
  <rect x="6" y="6" width="120" height="60" rx="30" fill="#FF6B63" fill-opacity="0.35"/>
  <text x="66" y="46" text-anchor="middle" font-family="system-ui,-apple-system,sans-serif" font-size="30" font-weight="800" fill="#ffffff">L</text>
</g>
<g transform="translate(188, 100)" opacity="0.9">
  <path d="M22 0 C22 0 38 16 38 32 C38 42 31 49 22 49 C13 49 6 42 6 32 C6 22 13 16 13 16 C13 16 15 26 22 26 C29 26 29 18 22 0Z" fill="#ef4444"/>
  <path d="M22 20 C22 20 29 27 29 35 C29 41 26 45 22 45 C18 45 15 41 15 35 C15 30 18 26 18 26 C18 26 19 30 22 30 C25 30 25 26 22 20Z" fill="#fca5a5" opacity="0.6"/>
</g>
<text x="246" y="130" font-family="system-ui,-apple-system,sans-serif" font-size="44" font-weight="700" fill="#fff1f2">Laravel Monorepo</text>
<text x="246" y="160" font-family="system-ui,-apple-system,sans-serif" font-size="15" fill="#991b1b">Production-ready Laravel monorepo template</text>
<text x="246" y="181" font-family="system-ui,-apple-system,sans-serif" font-size="15" fill="#991b1b">Turborepo · nWidart Modules · Rector · PHPStan</text>
<g transform="translate(44, 200)">
  <rect x="0" y="0" width="100" height="26" rx="5" fill="#dc2626" fill-opacity="0.15" stroke="#dc2626" stroke-opacity="0.6" stroke-width="1"/>
  <text x="50" y="17.5" text-anchor="middle" font-family="system-ui,-apple-system,sans-serif" font-size="11.5" font-weight="600" fill="#fca5a5">Laravel 12</text>
  <rect x="108" y="0" width="76" height="26" rx="5" fill="#c2410c" fill-opacity="0.15" stroke="#c2410c" stroke-opacity="0.6" stroke-width="1"/>
  <text x="146" y="17.5" text-anchor="middle" font-family="system-ui,-apple-system,sans-serif" font-size="11.5" font-weight="600" fill="#fdba74">PHP 8.4</text>
  <rect x="192" y="0" width="90" height="26" rx="5" fill="#b91c1c" fill-opacity="0.15" stroke="#b91c1c" stroke-opacity="0.6" stroke-width="1"/>
  <text x="237" y="17.5" text-anchor="middle" font-family="system-ui,-apple-system,sans-serif" font-size="11.5" font-weight="600" fill="#fca5a5">Turborepo</text>
</g>
<g transform="translate(44, 234)">
  <rect x="0" y="0" width="100" height="26" rx="5" fill="#92400e" fill-opacity="0.15" stroke="#92400e" stroke-opacity="0.6" stroke-width="1"/>
  <text x="50" y="17.5" text-anchor="middle" font-family="system-ui,-apple-system,sans-serif" font-size="11.5" font-weight="600" fill="#fde68a">nWidart Mod.</text>
  <rect x="108" y="0" width="84" height="26" rx="5" fill="#b45309" fill-opacity="0.15" stroke="#b45309" stroke-opacity="0.6" stroke-width="1"/>
  <text x="150" y="17.5" text-anchor="middle" font-family="system-ui,-apple-system,sans-serif" font-size="11.5" font-weight="600" fill="#fcd34d">Rector 2</text>
  <rect x="200" y="0" width="88" height="26" rx="5" fill="#78350f" fill-opacity="0.2" stroke="#78350f" stroke-opacity="0.7" stroke-width="1"/>
  <text x="244" y="17.5" text-anchor="middle" font-family="system-ui,-apple-system,sans-serif" font-size="11.5" font-weight="600" fill="#fde68a">PHPStan 2</text>
</g>
<line x1="640" y1="20" x2="640" y2="320" stroke="url(#divider3)" stroke-width="1"/>
<text x="672" y="68" font-family="system-ui,-apple-system,sans-serif" font-size="11" font-weight="600" fill="#7f1d1d" letter-spacing="2">FEATURES</text>
<g font-family="system-ui,-apple-system,sans-serif" font-size="14" fill="#fff1f2">
  <text x="672" y="98"><tspan fill="#ef4444" font-weight="700">› </tspan>Laravel 12 + nWidart Modules (monorepo)</text>
  <text x="672" y="126"><tspan fill="#ef4444" font-weight="700">› </tspan>Auto path repos · composer env:dev/prod</text>
  <text x="672" y="154"><tspan fill="#ef4444" font-weight="700">› </tspan>PHPStan 2 · Rector 2 · Laravel Pint</text>
  <text x="672" y="182"><tspan fill="#ef4444" font-weight="700">› </tspan>GitHub Actions — CI, deploy, publish</text>
  <text x="672" y="210"><tspan fill="#ef4444" font-weight="700">› </tspan>Kiro MCP — Laravel docs + Playwright</text>
  <text x="672" y="238"><tspan fill="#ef4444" font-weight="700">› </tspan>Packagist publish · CodeQL · Dependabot</text>
</g>
<rect y="318" width="1200" height="42" fill="#060100"/>
<text x="32" y="344" font-family="system-ui,-apple-system,sans-serif" font-size="13" fill="#7f1d1d">github.com/pixielity-inc/laravel-monorepo</text>
<text x="1168" y="344" text-anchor="end" font-family="system-ui,-apple-system,sans-serif" font-size="13" fill="#7f1d1d">MIT License</text>
</svg>
