<svg width="1200" height="300" viewBox="0 0 1200 300" fill="none" xmlns="http://www.w3.org/2000/svg">
    <defs>
        <style type="text/css">
            @import url('https://fonts.googleapis.com/css2?family=Inter:wght@400;600;700;800&amp;display=swap');
            text { font-family: 'Inter', sans-serif; }
        </style>
    </defs>

    <!-- Outer Background -->
    <rect width="1200" height="300" fill="#1a1a1a" />

    <!-- Main Card - Deep Red (#D53535) -->
    <rect x="40" y="30" width="1120" height="240" rx="16" fill="#D53535" />

    <!-- Decorative Patterns from Group.svg (Rescaled and Recolored) -->
    <g opacity="0.1" transform="translate(850, 40) scale(0.3)">
        <path d="M272.185 185.562C272.185 177.246 265.444 170.505 257.128 170.505H201.376C193.06 170.505 186.319 177.246 186.319 185.562V498.933C186.319 507.249 193.06 513.99 201.376 513.99H257.128C265.444 513.99 272.185 507.249 272.185 498.933V185.562Z" fill="white"/>
        <path d="M599.105 0H543.352C535.037 0 528.296 6.741 528.296 15.057V70.812C528.296 79.128 535.037 85.869 543.352 85.869H599.105C607.421 85.869 614.161 79.128 614.161 70.812V15.057C614.161 6.741 607.421 0 599.105 0Z" fill="white"/>
        <path d="M287.134 170.415H514.626C522.942 170.415 529.682 163.674 529.682 155.358V99.6029C529.682 91.2869 522.942 84.5459H287.134C278.818 84.5459 272.077 91.2869 272.077 99.6029V155.358C272.077 163.674 278.818 170.415 287.134 170.415Z" fill="white"/>
        <path d="M514.752 427.914H373.125C364.809 427.914 358.068 434.655 358.068 442.971V498.726C358.068 507.042 364.809 513.783 373.125 513.783H514.752C523.068 513.783 529.808 507.042 529.808 498.726V442.971C529.808 434.655 523.068 427.914 514.752 427.914Z" fill="white"/>
    </g>

    <!-- Pixielity Logo -->
    <g transform="translate(80, 70)">
        <rect width="60" height="60" rx="12" fill="white" />
        <g transform="translate(5, 5) scale(0.2)">
            <path d="M50.2777 59.0037C50.2777 56.6718 49.3492 54.4353 47.6964 52.7864C46.0435 51.1375 43.8019 50.2112 41.4644 50.2112H8.77408C6.44345 50.2216 4.21182 51.1525 2.56747 52.8003C0.923133 54.4481 -2.30868e-05 56.6786 4.33032e-10 59.0037L4.33034e-10 242.068C4.33034e-10 244.399 0.928543 246.636 2.58136 248.285C4.23418 249.934 6.47588 250.86 8.81331 250.86H41.5036C43.8343 250.85 46.0659 249.919 47.7102 248.271C49.3545 246.623 50.2777 244.393 50.2777 242.068V59.0037ZM91.6898 250.769H58.9995C56.662 250.769 54.4204 251.695 52.7676 253.344C51.1147 254.993 50.1862 257.229 50.1862 259.562V292.175C50.1862 294.507 51.1147 296.743 52.7676 298.392C54.4204 300.041 56.662 300.967 58.9995 300.967H91.6898C94.0273 300.967 96.269 300.041 97.9218 298.392C99.5746 296.743 100.503 294.507 100.503 292.175V259.562C100.508 258.403 100.284 257.257 99.8436 256.184C99.4029 255.113 98.7546 254.14 97.9357 253.32C97.1168 252.499 96.1434 251.847 95.0716 251.403C93.9997 250.958 92.8505 250.73 91.6898 250.73V250.769ZM58.9995 50.1981H192.219C193.376 50.1981 194.523 49.9707 195.591 49.5289C196.661 49.087 197.633 48.4394 198.451 47.6228C199.27 46.8065 199.918 45.8372 200.362 44.7704C200.805 43.7037 201.032 42.5604 201.032 41.4056V8.79251C201.032 7.63786 200.805 6.49452 200.362 5.42777C199.918 4.361 199.27 3.39173 198.451 2.57527C197.633 1.7588 196.661 1.11116 195.591 0.669287C194.523 0.227431 193.376 0 192.219 0H59.0257C57.8671 0 56.7201 0.227862 55.6499 0.67054C54.5798 1.11322 53.6077 1.76204 52.7891 2.57988C51.9706 3.39772 51.3216 4.36853 50.8795 5.4368C50.4374 6.50506 50.2106 7.64981 50.2123 8.80555V41.4187C50.2262 43.7416 51.1608 45.9645 52.8121 47.6022C54.4634 49.2399 56.6972 50.1591 59.0257 50.159L58.9995 50.1981ZM192.285 200.558H109.369C107.031 200.558 104.79 201.484 103.137 203.133C101.484 204.782 100.555 207.018 100.555 209.35V241.964C100.555 244.295 101.484 246.532 103.137 248.181C104.79 249.83 107.031 250.756 109.369 250.756H192.285C194.623 250.756 196.864 249.83 198.517 248.181C200.169 246.532 201.098 244.295 201.098 241.964V209.35C201.098 207.018 200.169 204.782 198.517 203.133C196.864 201.484 194.623 200.558 192.285 200.558ZM242.51 50.1068H209.82C207.482 50.1068 205.24 51.0331 203.588 52.6821C201.935 54.331 201.006 56.5675 201.006 58.8993V191.778C201.006 194.11 201.935 196.347 203.588 197.996C205.24 199.645 207.482 200.571 209.82 200.571H242.51C244.848 200.571 247.089 199.645 248.742 197.996C250.395 196.347 251.323 194.11 251.323 191.778V58.8993C251.323 56.5675 250.395 54.331 248.742 52.6821C247.089 51.0331 244.848 50.1068 242.51 50.1068ZM109.343 150.555H142.033C144.371 150.555 146.612 149.629 148.265 147.98C149.918 146.331 150.846 144.094 150.846 141.763V109.15C150.846 106.818 149.918 104.581 148.265 102.932C146.612 101.283 144.371 100.357 142.033 100.357H109.343C107.005 100.357 104.763 101.283 103.111 102.932C101.458 104.581 100.529 106.818 100.529 109.15V141.763C100.54 144.088 101.473 146.314 103.125 147.954C104.776 149.595 107.012 150.516 109.343 150.516V150.555Z" fill="#D53535"/>
        </g>
    </g>

    <!-- Main Title -->
    <text x="160" y="145" font-family="Inter" font-size="90" font-weight="800" fill="#ffffff" letter-spacing="-3">CRUD</text>

    <!-- Tagline -->
    <text x="160" y="195" font-family="Inter" font-size="24" font-weight="600" fill="#ffffff" opacity="0.9">Automated Resource Management</text>

    <!-- Feature Keywords -->
    <text x="160" y="235" font-family="Inter" font-size="14" font-weight="700" fill="#ffffff" opacity="0.7" letter-spacing="1.5">MODELS • CONTROLLERS • VALIDATION • FACTORIES</text>

</svg>